<svg width="30" height="22" viewBox="0 0 30 22" fill="none" xmlns="http://www.w3.org/2000/svg">
<path d="M28.7165 6.5002H25.3325L24.4325 4.1602C23.4965 1.7482 21.1565 0.200195 18.5645 0.200195H11.4365C8.84445 0.200195 6.54045 1.7482 5.56845 4.1602L4.63245 6.5002H1.24845C0.888453 6.5002 0.564453 6.7882 0.564453 7.1842C0.564453 7.2202 0.564453 7.29219 0.600453 7.32819L0.924453 8.69619C0.996453 8.98419 1.28445 9.2002 1.57245 9.2002H2.76045C1.96845 9.8842 1.50045 10.8562 1.50045 11.9002V14.6002C1.50045 15.4642 1.82445 16.2922 2.40045 16.9762V20.0002C2.40045 21.0082 3.19245 21.8002 4.20045 21.8002H6.00045C7.00845 21.8002 7.80045 21.0082 7.80045 20.0002V18.2002H22.2005V20.0002C22.2005 21.0082 22.9925 21.8002 24.0005 21.8002H25.8005C26.8085 21.8002 27.6005 21.0082 27.6005 20.0002V16.9402C28.1765 16.2922 28.5005 15.4642 28.5005 14.5642V11.8642C28.5005 10.8202 28.0325 9.8482 27.2405 9.1642H28.3565C28.6805 9.1642 28.9325 8.94819 29.0045 8.6602L29.3285 7.2922C29.4005 6.9322 29.1845 6.5722 28.8245 6.4642C28.8245 6.5002 28.7885 6.5002 28.7165 6.5002ZM8.91645 5.4922C9.31245 4.4482 10.3205 3.8002 11.4365 3.8002H18.5645C19.6805 3.8002 20.6885 4.4842 21.0845 5.4922L22.2005 8.30019H7.80045L8.91645 5.4922ZM6.00045 14.6002C5.06445 14.6722 4.27245 13.9522 4.20045 13.0162C4.20045 12.9442 4.20045 12.8722 4.20045 12.8002C4.12845 11.8642 4.84845 11.0722 5.78445 11.0002H6.00045C7.08045 11.0002 8.70045 12.6202 8.70045 13.7002C8.70045 14.7802 7.08045 14.6002 6.00045 14.6002ZM24.0005 14.6002C22.9205 14.6002 21.3005 14.7802 21.3005 13.7002C21.3005 12.6202 22.9205 11.0002 24.0005 11.0002C24.9365 10.9282 25.7285 11.6482 25.8005 12.5842V12.8002C25.8725 13.7362 25.1525 14.5282 24.2165 14.6002C24.1445 14.6002 24.0725 14.6002 24.0005 14.6002Z" fill="white"/>
</svg>
