<svg width="28" height="28" viewBox="0 0 28 28" fill="none" xmlns="http://www.w3.org/2000/svg">
<path d="M27.1501 13.1119C27.533 12.6216 27.6907 11.9896 27.583 11.3782C27.475 10.7668 27.1109 10.2269 26.5835 9.89699C26.168 9.63717 25.9823 9.12795 26.1339 8.66158C26.3259 8.06997 26.258 7.42233 25.9474 6.88455C25.637 6.34678 25.11 5.96418 24.5016 5.83454C24.0223 5.73264 23.6738 5.31736 23.6565 4.82765C23.6345 4.20582 23.3492 3.62053 22.8737 3.22145C22.398 2.8221 21.7721 2.64302 21.1557 2.72927C20.6707 2.79766 20.201 2.5263 20.0173 2.07201C19.7841 1.49523 19.3158 1.0426 18.7322 0.830288C18.1488 0.617978 17.499 0.663571 16.9499 0.955532C16.5171 1.18542 15.9831 1.09121 15.6549 0.727017C15.2388 0.265044 14.6439 0 14.0229 0C13.4019 0 12.807 0.265044 12.3909 0.727017C12.0627 1.09121 11.5287 1.18542 11.0959 0.955532C10.5468 0.663571 9.89699 0.617978 9.31362 0.830288C8.72998 1.0426 8.26169 1.49523 8.0285 2.07201C7.84476 2.5263 7.37537 2.79766 6.89005 2.72927C6.27399 2.64302 5.64777 2.8221 5.17207 3.22145C4.69636 3.62053 4.41127 4.20582 4.3893 4.82765C4.37199 5.31736 4.02373 5.73264 3.54418 5.83481C2.93581 5.96418 2.40874 6.34678 2.09838 6.88455C1.78774 7.42233 1.7199 8.06997 1.91189 8.66158C2.06323 9.12795 1.87783 9.63717 1.46228 9.89727C0.934934 10.2269 0.570738 10.7668 0.462798 11.3782C0.355133 11.9899 0.512786 12.6216 0.895658 13.1121C1.19723 13.4983 1.19723 14.0405 0.895658 14.4266C0.512786 14.9169 0.355133 15.5489 0.462798 16.1603C0.570738 16.7719 0.934934 17.3116 1.46228 17.6415C1.87783 17.9013 2.0635 18.4105 1.91216 18.8769C1.7199 19.4685 1.78802 20.1162 2.09838 20.6539C2.40902 21.1917 2.93581 21.5743 3.54418 21.704C4.02373 21.8058 4.37199 22.2211 4.3893 22.7111C4.41127 23.3327 4.69664 23.9182 5.17234 24.3173C5.64805 24.7164 6.27427 24.8957 6.89005 24.8092C7.37537 24.7414 7.84476 25.0122 8.0285 25.4668C8.26169 26.0433 8.73025 26.4959 9.31362 26.7082C9.89727 26.9205 10.5468 26.8749 11.0961 26.5832C11.2544 26.4989 11.4266 26.4583 11.5968 26.4583C11.8921 26.4583 12.1827 26.5805 12.3909 26.8115C12.8073 27.2737 13.4022 27.5385 14.0229 27.5385C14.6439 27.5385 15.2388 27.2734 15.6552 26.8115C15.9831 26.4473 16.5171 26.3533 16.9499 26.5832C17.4992 26.8752 18.1488 26.9205 18.7324 26.7082C19.3158 26.4959 19.7841 26.0433 20.0173 25.4668C20.201 25.0122 20.6707 24.7411 21.156 24.8092C21.7718 24.8955 22.398 24.7164 22.8737 24.3173C23.3494 23.9182 23.6348 23.3327 23.6568 22.7111C23.6738 22.2211 24.0223 21.8061 24.5016 21.704C25.11 21.5743 25.637 21.1917 25.9477 20.6539C26.258 20.1162 26.3259 19.4685 26.1339 18.8769C25.9826 18.4108 26.168 17.9013 26.5835 17.6415C27.1111 17.3116 27.4753 16.7719 27.5833 16.1605C27.6909 15.5489 27.5333 14.9172 27.1504 14.4266C26.8486 14.0402 26.8486 13.4983 27.1501 13.1119ZM14.0229 23.1283C8.86236 23.1283 4.66368 18.9299 4.66368 13.7694C4.66368 8.60858 8.86236 4.41017 14.0229 4.41017C19.1834 4.41017 23.3818 8.60858 23.3818 13.7694C23.3818 18.9299 19.1834 23.1283 14.0229 23.1283Z" fill="white"/>
</svg>
